# xmcd CD database file
#
# Track frame offsets:
#	150
#	12174
#	24797
#	36879
#	49992
#	66060
#	89992
#	101153
#	113702
#	131447
#	143307
#	155319
#	169097
#	186046
#	196848
#	208921
#
# Disc length: 3004 seconds
#
# Revision: 0
# Processed by: cddbd v1.5.1PL0 Copyright (c) Steve Scherf et al.
# Submitted via: CDex 1.51
#
DISCID=d40bba10
DTITLE=Various Artist - 32 Country Hits
DYEAR=2000
DGENRE=Country
TTITLE0=Telly Savalas - Some Broken Hearts Never Mind
TTITLE1=Bellamy Brothers - Let Your Love Flow
TTITLE2=Nashville Music Company - Blue Bayou
TTITLE3=Patsy Cline and Willie Nelson - Life's Railway To Heaven
TTITLE4=John Brack - Red River Valley
TTITLE5=The Cumberland Boys - Just A Closer Walk With Thee
TTITLE6=Pam Gadd - Sittin' On Top Of The World
TTITLE7=Peter Hinnen - In The Middle Of An Island
TTITLE8=Joyce'n Webber - Midnight Special
TTITLE9=Dolly Parton - Making Believe
TTITLE10=Kenny Rogers - Ruben James
TTITLE11=Juice Newton - Listen To The Radio 
TTITLE12=Billy Troy - Frankie And Johnny
TTITLE13=Jennifer Weatherly - The Yellow Rose Of Texas
TTITLE14=The Nashville Pickers - Rollin' In My Sweet Baby Arms
TTITLE15=Rolf Raggenbass and Country Heart Band - Goodbye Mexico
EXTD=YEAR: 2000
EXTT0=
EXTT1=
EXTT2=
EXTT3=
EXTT4=
EXTT5=
EXTT6=
EXTT7=
EXTT8=
EXTT9=
EXTT10=
EXTT11=
EXTT12=
EXTT13=
EXTT14=
EXTT15=
PLAYORDER=
